<?xml version="1.0" encoding="utf-8"?>
<!-- Generator: Adobe Illustrator 23.0.0, SVG Export Plug-In . SVG Version: 6.00 Build 0)  -->
<svg version="1.1" id="Camada_1" xmlns="http://www.w3.org/2000/svg" xmlns:xlink="http://www.w3.org/1999/xlink" x="0px" y="0px"
	 viewBox="0 0 750 750" style="enable-background:new 0 0 750 750;" xml:space="preserve">
<g id="surface1">
	<path d="M-1003.2,187.7v-43.8h-15.4V183c-2.6-0.4-5.1-0.6-7.7-0.6h-15.4v-38.5h-15.4v38.5h-23.1v-38.5h-15.4v38.5h-23.1v-38.5
		h-15.4v38.5h-23.1v-38.5h-15.4v38.5h-23.1v-38.5h-15.4v38.5h-23.1v-38.5h-15.4v38.5h-23.1v-38.5h-15.4v38.5h-15.4
		c-2.6,0-5.2,0.2-7.7,0.6v-39.1h-15.4v43.8c-11.2,5.3-20.2,14.4-25.5,25.5h-43.8v15.4h39.1c-0.4,2.6-0.6,5.1-0.6,7.7v15.4h-38.5
		v15.4h38.5v23.1h-38.5v15.4h38.5v23.1h-38.5v15.4h38.5v23.1h-38.5v15.4h38.5v23.1h-38.5v15.4h38.5v23.1h-38.5v15.4h38.5v23.1h-38.5
		v15.4h38.5v15.4c0,2.6,0.2,5.2,0.6,7.7h-39.1v15.4h43.8c5.3,11.2,14.4,20.2,25.5,25.5v43.8h15.4V567c2.6,0.4,5.1,0.6,7.7,0.6h15.4
		v38.5h15.4v-38.5h23.1v38.5h15.4v-38.5h23.1v38.5h15.4v-38.5h23.1v38.5h15.4v-38.5h23.1v38.5h15.4v-38.5h23.1v38.5h15.4v-38.5h23.1
		v38.5h15.4v-38.5h15.4c2.6,0,5.2-0.2,7.7-0.6v39.1h15.4v-43.8c11.2-5.3,20.2-14.4,25.5-25.5h43.8v-15.4H-973
		c0.4-2.6,0.6-5.1,0.6-7.7v-15.4h38.5v-15.4h-38.5v-23.1h38.5v-15.4h-38.5v-23.1h38.5v-15.4h-38.5v-23.1h38.5v-15.4h-38.5v-23.1
		h38.5v-15.4h-38.5v-23.1h38.5v-15.4h-38.5v-23.1h38.5v-15.4h-38.5v-15.4c0-2.6-0.2-5.2-0.6-7.7h39.1v-15.4h-43.8
		C-983,202-992,193-1003.2,187.7z M-987.8,513.7c0,21.3-17.3,38.5-38.5,38.5h-277.4c-21.3,0-38.5-17.3-38.5-38.5V236.3
		c0-21.3,17.3-38.5,38.5-38.5h277.4c21.3,0,38.5,17.3,38.5,38.5L-987.8,513.7L-987.8,513.7z"/>
	<path d="M-1034,220.9h-262c-12.8,0-23.1,10.4-23.1,23.1v262c0,12.8,10.4,23.1,23.1,23.1h262c12.8,0,23.1-10.4,23.1-23.1V244
		C-1010.9,231.3-1021.3,220.9-1034,220.9z M-1026.3,506c0,4.3-3.4,7.7-7.7,7.7h-262c-4.3,0-7.7-3.4-7.7-7.7V244
		c0-4.3,3.4-7.7,7.7-7.7h262c4.3,0,7.7,3.4,7.7,7.7V506z"/>
	<path d="M-1057.1,251.7h15.4v15.4h-15.4V251.7z"/>
	<path d="M-1288.3,482.9h15.4v15.4h-15.4V482.9z"/>
	<path d="M-1288.3,267.1v23.1h15.4v-23.1h23.1v-15.4h-23.1C-1281.4,251.7-1288.3,258.6-1288.3,267.1z"/>
	<path d="M-1057.1,482.9h-23.1v15.4h38.5v-38.5h-15.4V482.9z"/>
</g>
<g>
	<path d="M-229.8,250.8h-360.6c-6.4,0-11.6,5.2-11.6,11.6v213.2c0,6.4,5.2,11.5,11.6,11.5h360.6c6.4,0,11.5-5.2,11.5-11.5V262.3
		C-218.2,256-223.4,250.8-229.8,250.8L-229.8,250.8z M-228.2,475.5c0,0.9-0.7,1.5-1.5,1.5h-360.6c-0.9,0-1.6-0.7-1.6-1.5V262.3
		c0-0.9,0.7-1.5,1.6-1.5h360.6c0.9,0,1.5,0.7,1.5,1.5L-228.2,475.5L-228.2,475.5z"/>
	<path d="M-184,494.6h-11.7V256.8c0-15.8-12.8-28.6-28.6-28.6h-371.6c-15.8,0-28.6,12.8-28.6,28.6v237.7h-11.7
		c-4.1,0-7.5,3.4-7.5,7.5v20.6c0,13.4,10.9,24.3,24.3,24.3h418.7c13.4,0,24.3-10.9,24.3-24.3V502
		C-176.5,497.9-179.9,494.6-184,494.6z M-609.5,256.8c0-7.5,6.1-13.6,13.6-13.6h371.6c7.5,0,13.6,6.1,13.6,13.6v237.7h-398.7
		L-609.5,256.8L-609.5,256.8z M-432.1,509.6h44v3.9c0,1.8-1.4,3.2-3.2,3.2h-37.6c-1.8,0-3.2-1.4-3.2-3.2L-432.1,509.6L-432.1,509.6z
		 M-191.5,522.7c0,5.1-4.2,9.3-9.3,9.3h-418.7c-5.1,0-9.3-4.2-9.3-9.3v-13.1h11.7h174.9v3.9c0,7.3,5.9,13.2,13.2,13.2h37.6
		c7.3,0,13.2-5.9,13.2-13.2v-3.9h174.9h11.7L-191.5,522.7L-191.5,522.7z"/>
</g>
<g>
	<g>
		<path d="M303,169c-27.9,0-50.5,22.6-50.5,50.5S275.1,270,303,270c27.9,0,50.5-22.6,50.5-50.5S330.8,169,303,169z M303,244.8
			c-13.9,0-25.2-11.4-25.2-25.2c0-13.9,11.4-25.1,25.2-25.1v-0.2c13.9,0,25.2,11.4,25.2,25.2C328.2,233.4,316.9,244.8,303,244.8z"/>
	</g>
</g>
<g>
	<g>
		<path d="M447.4,169c-27.9,0-50.5,22.6-50.5,50.5s22.6,50.5,50.5,50.5c27.9,0,50.5-22.6,50.5-50.5S475.3,169,447.4,169z
			 M447.4,244.8c-13.9,0-25.2-11.4-25.2-25.2c0-13.9,11.4-25.1,25.2-25.1v-0.2c13.9,0,25.2,11.4,25.2,25.2
			C472.6,233.4,461.3,244.8,447.4,244.8z"/>
	</g>
</g>
<g>
	<g>
		<path d="M601.2,227.1c-5.5-30-29.5-53-59.8-57.1c-8.4-30.8-32.3-57.1-80.5-57.1h-73.2V85.1c22.1-6.9,34.4-30.6,27.5-52.7
			C408.2,10.3,384.6-2,362.5,4.9c-22.1,6.9-34.4,30.6-27.5,52.7c4.1,13.1,14.4,23.4,27.5,27.5v27.1h-73.1
			c-34.1,0-69.9,15.6-80.8,57.1c-38.5,5.2-65.3,40.7-60.1,79.2c4.1,30.1,27.3,54.3,57.1,59.7l-0.2,0.6c3.8,55.4,45,75.7,83.6,75.7
			h171.7c57.8,0,80.8-37.9,83.6-75.7C582.9,301.9,608.2,265.3,601.2,227.1z M205.3,283.6c-23.8-6.9-37.6-31.9-30.8-55.7
			c4.3-14.8,15.9-26.4,30.8-30.8V283.6z M358.4,45.8c0-9.3,7.6-16.7,16.7-16.7c9.2,0,16.7,7.6,16.7,16.7c0,9.3-7.6,16.7-16.7,16.7
			C366,62.5,358.4,55.1,358.4,45.8z M519.8,299.8c0,21.9-7.7,58.9-58.9,58.9H289.4c-21.9,0-58.9-7.7-58.9-58.9l-0.2-102.6
			c0-51.3,36.9-58.9,58.9-58.9H461c51.3,0,58.9,36.9,58.9,58.9L519.8,299.8L519.8,299.8z M544.6,282.8v-86.3
			c19.3,5.5,32.5,23.2,32.5,43.2C577.1,259.6,563.8,277.1,544.6,282.8z"/>
	</g>
</g>
<g>
	<g>
		<path d="M447.4,304.3H303c-6.9,0-12.6,5.7-12.6,12.6c0,6.9,5.7,12.6,12.6,12.6h144.4c6.9,0,12.6-5.7,12.6-12.6
			C460,309.9,454.3,304.3,447.4,304.3z"/>
	</g>
</g>
<g>
	<g>
		<path d="M656,408.3L656,408.3c-0.3-27-22.4-48.8-49.4-48.6c-22.6,0.2-42.1,15.9-47.3,37.9l-33.8,6.6H224.7l-33.8-6.6
			c-5.8-26.4-31.9-43.2-58.4-37.4S89.3,392,95.2,418.5c3.9,18,17.5,32.2,35.3,36.9v94.4c-21.3,5.7-36.3,24.9-36.3,47v22.4
			c0,6.9,5.7,12.6,12.6,12.6c6.9,0,12.6-5.7,12.6-12.6v-22.4c0-13.1,10.6-23.7,23.7-23.7c13.1,0,23.7,10.6,23.7,23.7v22.4
			c0,6.9,5.7,12.6,12.6,12.6c6.9,0,12.6-5.7,12.6-12.6v-22.4c-0.2-22.1-15-41.3-36.3-47v-94.4c16.1-4.3,28.7-16.6,33.8-32.3
			l21.1,4.1V583c0,22.9,4.9,45.4,14.2,66.3v1.1C262.1,733,359.3,769.8,442,732.4c36.5-16.4,65.6-45.6,82.1-82.1l0.6-1.4
			c9.5-20.8,14.4-43.2,14.5-66V427.2l21.1-4.1c5,15.8,17.8,27.9,33.8,32.3v94.4c-21.3,5.7-36.3,24.9-36.3,47v22.4
			c0,6.9,5.7,12.6,12.6,12.6c6.9,0,12.6-5.7,12.6-12.6v-22.4c0-13.1,10.6-23.7,23.8-23.7c13.1,0,23.7,10.6,23.7,23.7v22.4
			c0,6.9,5.7,12.6,12.6,12.6s12.6-5.7,12.6-12.6v-22.4c-0.2-22.1-15-41.3-36.3-47v-94.4C640.9,449.8,655.8,430.4,656,408.3z
			 M143.3,431.9c-13.1,0-23.7-10.6-23.7-23.7c0-13.1,10.6-23.7,23.7-23.7c13.1,0,23.7,10.6,23.7,23.7
			C167,421.4,156.4,431.9,143.3,431.9z M375.1,722c-47.5,0-91.8-24.3-117.2-64.5h234.5C467,697.7,422.8,722,375.1,722z M514,583.1
			c0,16.9-3.2,33.5-9.2,49.2H245.2c-6-15.8-9.2-32.3-9.2-49.2V429.4h278.1v153.7H514z M607.2,431.9
			C607.2,431.9,607.1,431.9,607.2,431.9l-0.3-0.3c-13.1,0-23.7-10.6-23.7-23.7c0-13.1,10.6-23.7,23.7-23.7
			c13.1,0,23.7,10.6,23.7,23.7C630.8,420.9,620.3,431.8,607.2,431.9z"/>
	</g>
</g>
<path d="M1069.4,365.3c-1.1-3.3-4.6-5-7.8-4c-3.3,1.1-5,4.6-4,7.8l5.7,17.4c0.9,2.6,3.3,4.3,5.9,4.3c0.6,0,1.3-0.1,1.9-0.3
	c3.3-1.1,5-4.6,4-7.8L1069.4,365.3z"/>
<path d="M1097.7,365.3c-1.1-3.3-4.6-5-7.8-4c-3.3,1.1-5,4.6-4,7.8l5.7,17.4c0.9,2.6,3.3,4.3,5.9,4.3c0.6,0,1.3-0.1,1.9-0.3
	c3.3-1.1,5-4.6,4-7.8L1097.7,365.3z"/>
<path d="M1228.4,361.3c-3.3-1.1-6.8,0.7-7.8,4l-5.7,17.4c-1.1,3.3,0.7,6.8,4,7.8c0.6,0.2,1.3,0.3,1.9,0.3c2.6,0,5.1-1.7,5.9-4.3
	l5.7-17.4C1233.5,365.9,1231.7,362.4,1228.4,361.3z"/>
<path d="M1200.2,361.3c-3.3-1.1-6.8,0.7-7.8,4l-5.7,17.4c-1.1,3.3,0.7,6.8,4,7.8c0.6,0.2,1.3,0.3,1.9,0.3c2.6,0,5-1.7,5.9-4.3
	l5.7-17.4C1205.2,365.9,1203.4,362.4,1200.2,361.3z"/>
<path d="M1335.5,354.5h-11.2v-14.3h26.4c3.4,0,6.2-2.8,6.2-6.2c0-3.4-2.8-6.2-6.2-6.2h-26.4c-0.3-8.5-7.3-15.3-15.9-15.3h-6.8
	c-8.6,0-15.6,6.8-15.9,15.3h-26.4c-3.4,0-6.2,2.8-6.2,6.2c0,3.4,2.8,6.2,6.2,6.2h26.4v14.3h-9.5c-13.5,0-26.1-7.9-32-20.1
	c-7.9-16.5-24.9-27.1-43.1-27.1h-112.3c-18.3,0-35.2,10.6-43.1,27.1c-5.9,12.2-18.4,20.1-32,20.1h-9.5v-14.3h26.4
	c3.4,0,6.2-2.8,6.2-6.2c0-3.4-2.8-6.2-6.2-6.2h-26.4c-0.3-8.5-7.3-15.3-15.9-15.3h-6.8c-8.6,0-15.6,6.8-15.9,15.3h-26.4
	c-3.4,0-6.2,2.8-6.2,6.2c0,3.4,2.8,6.2,6.2,6.2h26.4v14.3h-11.2c-11.8,0-21.3,9.6-21.3,21.3c0,17.9,14.5,32.4,32.4,32.4h36.5
	l-2.7,22.2c-0.4,3.4,2,6.5,5.4,6.9c0.3,0,0.5,0,0.7,0c3.1,0,5.8-2.3,6.2-5.5l2.8-23.7h23.9l-33.9,123.5h-4.8l8.5-71.2
	c0.4-3.4-2-6.5-5.4-6.9s-6.5,2-6.9,5.4l-8.8,73.3c-0.4,2.9,0.4,5.8,2.3,8.1c1.9,2.3,4.8,3.6,7.8,3.6h9.1c4.4,0,8.3-2.8,9.7-7
	c0-0.1,0.1-0.2,0.1-0.3l35.2-128.5c6.1,0.6,11.9,3.3,16.3,7.7c7.4,7.4,17.2,11.4,27.6,11.4h18l3.4,19.6
	c-11.5,2.1-20.3,12.2-20.3,24.3V508c0,13.6,11.1,24.7,24.7,24.7h48.1c13.6,0,24.7-11.1,24.7-24.7v-36.6c0-12.1-8.8-22.2-20.3-24.3
	l3.4-19.6h18c10.4,0,20.3-4.1,27.6-11.4c4.4-4.4,10.1-7.1,16.3-7.7l35.2,128.5c0,0.1,0.1,0.2,0.1,0.3c1.4,4.2,5.3,7,9.7,7h9.1
	c3,0,5.9-1.3,7.8-3.6s2.7-5.2,2.3-8.1l-8.8-73.2c-0.4-3.4-3.5-5.8-6.9-5.4s-5.8,3.5-5.4,6.9l8.5,71h-4.8l-33.9-123.5h23.9l2.9,23.9
	c0.4,3.2,3.1,5.5,6.2,5.5c0.2,0,0.5,0,0.7,0c3.4-0.4,5.8-3.5,5.4-6.9l-2.7-22.4h36.5c17.9,0,32.4-14.5,32.4-32.4
	C1356.9,364.1,1347.3,354.5,1335.5,354.5z M1298.1,328.3c0-1.9,1.6-3.5,3.5-3.5h6.8c1.9,0,3.5,1.6,3.5,3.5v26.2h-13.8V328.3z
	 M978.1,328.3c0-1.9,1.6-3.5,3.5-3.5h6.8c1.9,0,3.5,1.6,3.5,3.5v26.2h-13.8V328.3z M1181.3,471.4V508c0,6.8-5.5,12.3-12.3,12.3
	h-48.1c-6.8,0-12.3-5.5-12.3-12.3v-36.6c0-6.8,5.5-12.3,12.3-12.3h2.9l0,0l0,0h42.2l0,0l0,0h2.9
	C1175.8,459.2,1181.3,464.7,1181.3,471.4z M1125.8,427.6h38.4l-3.3,19.2h-31.8L1125.8,427.6z M1324.4,395.9h-81c-0.1,0-0.1,0-0.2,0
	h-2c-10.4,0-20.3,4.1-27.6,11.4c-5,5-11.7,7.8-18.9,7.8h-99.5c-7.1,0-13.8-2.8-18.9-7.8c-7.4-7.4-17.2-11.4-27.6-11.4h-2
	c-0.1,0-0.2,0-0.3,0h-80.9c-11,0-20-9-20-20c0-4.9,4-8.9,8.9-8.9h59.3c18.3,0,35.2-10.6,43.1-27.1c5.9-12.2,18.4-20.1,32-20.1h112.3
	c13.5,0,26.1,7.9,32,20.1c7.9,16.5,24.9,27.1,43.1,27.1h59.3c4.9,0,8.9,4,8.9,8.9C1344.5,386.9,1335.5,395.9,1324.4,395.9z"/>
<path d="M1145,468.8c-11.5,0-20.9,9.4-20.9,20.9s9.4,20.9,20.9,20.9s20.9-9.4,20.9-20.9S1156.5,468.8,1145,468.8z M1145,498.2
	c-4.7,0-8.5-3.8-8.5-8.5s3.8-8.5,8.5-8.5s8.5,3.8,8.5,8.5S1149.7,498.2,1145,498.2z"/>
</svg>
