<?xml version="1.0" encoding="utf-8"?>
<!-- Generator: Adobe Illustrator 23.0.0, SVG Export Plug-In . SVG Version: 6.00 Build 0)  -->
<svg version="1.1" id="Layer_1" xmlns="http://www.w3.org/2000/svg" xmlns:xlink="http://www.w3.org/1999/xlink" x="0px" y="0px"
	 viewBox="0 0 228 351" style="enable-background:new 0 0 228 351;" xml:space="preserve">
<title>SMARTPHONE</title>
<path d="M184.7,5.8H42.6c-19.7,0-35.8,16-35.8,35.8v267.9c0,19.7,16,35.7,35.8,35.8h142.1c19.7,0,35.8-16,35.8-35.8V41.6
	C220.5,21.8,204.5,5.8,184.7,5.8z M184.7,335.2H42.6c-14.2,0-25.8-11.5-25.8-25.8V56H191c2.8,0,5-2.2,5-5s-2.2-5-5-5H16.8v-4.4
	c0-14.2,11.5-25.8,25.8-25.8h142.1c14.2,0,25.8,11.5,25.8,25.8V295H53c-2.8,0-5,2.2-5,5s2.2,5,5,5h157.5v4.4
	C210.5,323.7,199,335.2,184.7,335.2L184.7,335.2z"/>
<path d="M37.3,295h-1.7c-2.8,0-5,2.2-5,5s2.2,5,5,5h1.7c2.8,0,5-2.2,5-5S40.1,295,37.3,295z"/>
<path d="M113.7,312.5c-4.3,0-7.8,3.5-7.8,7.8s3.5,7.8,7.8,7.8s7.8-3.5,7.8-7.8C121.5,316,118,312.5,113.7,312.5z"/>
<path d="M143.2,25h-59c-2.8,0-5,2.2-5,5s2.2,5,5,5h59c2.8,0,5-2.2,5-5S145.9,25,143.2,25z"/>
<path d="M107.9,243.7c2.5,1.1,5.5-0.1,6.6-2.6c0,0,0,0,0,0l40-93.2c1.1-2.5-0.1-5.5-2.6-6.6c-2.5-1.1-5.5,0.1-6.6,2.6l-40,93.2
	C104.2,239.7,105.3,242.6,107.9,243.7C107.9,243.7,107.9,243.7,107.9,243.7z"/>
<path d="M121.5,140.4c2.5,1.1,5.5-0.1,6.6-2.6c0,0,0,0,0,0l12-27.9c1.1-2.5-0.1-5.5-2.6-6.6s-5.5,0.1-6.6,2.6l0,0l-11.9,27.9
	C117.8,136.4,118.9,139.3,121.5,140.4z"/>
<path d="M75.5,247.6c2.5,1.1,5.5-0.1,6.6-2.6c0,0,0,0,0,0l38.5-89.9c1.1-2.5-0.1-5.5-2.6-6.6c-2.5-1.1-5.5,0.1-6.6,2.6l0,0
	l-38.5,89.9C71.8,243.6,73,246.6,75.5,247.6z"/>
</svg>
