<?xml version="1.0" encoding="utf-8"?>
<!-- Generator: Adobe Illustrator 23.0.0, SVG Export Plug-In . SVG Version: 6.00 Build 0)  -->
<svg version="1.1" id="Camada_1" xmlns="http://www.w3.org/2000/svg" xmlns:xlink="http://www.w3.org/1999/xlink" x="0px" y="0px"
	 viewBox="0 0 474 475" style="enable-background:new 0 0 474 475;" xml:space="preserve">
<g id="surface1">
	<path d="M398.7,48.7V4.9h-15.4V44c-2.6-0.4-5.1-0.6-7.7-0.6h-15.4V4.9h-15.4v38.5h-23.1V4.9h-15.4v38.5h-23.1V4.9h-15.4v38.5h-23.1
		V4.9h-15.4v38.5h-23.1V4.9h-15.4v38.5h-23.1V4.9h-15.4v38.5h-23.1V4.9h-15.4v38.5H98.4c-2.6,0-5.2,0.2-7.7,0.6V4.9H75.3v43.8
		C64.1,54,55.1,63.1,49.8,74.2H6v15.4h39.1c-0.4,2.6-0.6,5.1-0.6,7.7v15.4H6v15.4h38.5v23.1H6v15.4h38.5v23.1H6v15.4h38.5v23.1H6
		v15.4h38.5v23.1H6v15.4h38.5v23.1H6v15.4h38.5v23.1H6v15.4h38.5v15.4c0,2.6,0.2,5.2,0.6,7.7H6v15.4h43.8
		c5.3,11.2,14.4,20.2,25.5,25.5v43.8h15.4V428c2.6,0.4,5.1,0.6,7.7,0.6h15.4v38.5h15.4v-38.5h23.1v38.5h15.4v-38.5h23.1v38.5h15.4
		v-38.5h23.1v38.5h15.4v-38.5h23.1v38.5h15.4v-38.5h23.1v38.5h15.4v-38.5h23.1v38.5h15.4v-38.5h15.4c2.6,0,5.2-0.2,7.7-0.6v39.1
		h15.4v-43.8c11.2-5.3,20.2-14.4,25.5-25.5H468v-15.4h-39.1c0.4-2.6,0.6-5.1,0.6-7.7v-15.4H468v-15.4h-38.5v-23.1H468v-15.4h-38.5
		v-23.1H468v-15.4h-38.5v-23.1H468v-15.4h-38.5v-23.1H468v-15.4h-38.5v-23.1H468v-15.4h-38.5v-23.1H468v-15.4h-38.5V97.5
		c0-2.6-0.2-5.2-0.6-7.7H468V74.4h-43.8C418.9,63,409.9,54,398.7,48.7z M414.1,374.7c0,21.3-17.3,38.5-38.5,38.5H98.2
		c-21.3,0-38.5-17.3-38.5-38.5V97.3C59.7,76,77,58.8,98.2,58.8h277.4c21.3,0,38.5,17.3,38.5,38.5L414.1,374.7L414.1,374.7z"/>
	<path d="M367.9,81.9h-262c-12.8,0-23.1,10.4-23.1,23.1v262c0,12.8,10.4,23.1,23.1,23.1h262c12.8,0,23.1-10.4,23.1-23.1V105
		C391,92.3,380.6,81.9,367.9,81.9z M375.6,367c0,4.3-3.4,7.7-7.7,7.7h-262c-4.3,0-7.7-3.4-7.7-7.7V105c0-4.3,3.4-7.7,7.7-7.7h262
		c4.3,0,7.7,3.4,7.7,7.7V367z"/>
	<path d="M344.8,112.7h15.4v15.4h-15.4V112.7z"/>
	<path d="M113.6,343.9H129v15.4h-15.4V343.9z"/>
	<path d="M113.6,128.1v23.1H129v-23.1h23.1v-15.4H129C120.5,112.7,113.6,119.6,113.6,128.1z"/>
	<path d="M344.8,343.9h-23.1v15.4h38.5v-38.5h-15.4V343.9z"/>
</g>
</svg>
