<?xml version="1.0" encoding="utf-8"?>
<!-- Generator: Adobe Illustrator 23.0.0, SVG Export Plug-In . SVG Version: 6.00 Build 0)  -->
<svg version="1.1" id="Camada_1" xmlns="http://www.w3.org/2000/svg" xmlns:xlink="http://www.w3.org/1999/xlink" x="0px" y="0px"
	 viewBox="0 0 512 390" style="enable-background:new 0 0 512 390;" xml:space="preserve">
<g>
	<g>
		<g>
			<path d="M196.65,186h-33.93v-33.93c0-4.73-3.78-8.51-8.51-8.51h-33.93c-4.73,0-8.51,3.78-8.51,8.51V186H77.97
				c-4.73,0-8.51,3.78-8.51,8.51v33.93c0,4.73,3.78,8.51,8.51,8.51h33.93v33.93c0,4.73,3.78,8.51,8.51,8.51h33.93
				c4.73,0,8.51-3.78,8.51-8.51v-33.93h33.93c4.73,0,8.51-3.78,8.51-8.51v-33.93C205.16,189.78,201.38,186,196.65,186z
				 M188.14,219.92h-33.93c-4.73,0-8.51,3.78-8.51,8.51v33.93h-16.9v-33.93c0-4.73-3.78-8.51-8.51-8.51H86.48v-16.9h33.93
				c4.73,0,8.51-3.78,8.51-8.51v-33.93h16.9v33.93c0,4.73,3.78,8.51,8.51,8.51h33.93v16.9H188.14z"/>
		</g>
	</g>
	<g>
		<g>
			<path d="M247.6,24.88v16.9h-16.9v33.93h-93.27c-4.96,0-10.05,0.24-15.01,0.83c-58.63,6.38-113.48,61-119.98,119.51
				c-8.51,74.47,44.92,141.73,119.39,150.24c30.26,3.43,60.88-3.43,86.88-19.5c11.11-7.33,23.88-11.82,37.24-13.12
				c6.62-0.47,13.12-0.59,19.74-0.12c13.48,1.3,26.48,5.91,37.83,13.24c63.72,39.36,147.41,19.62,186.77-44.09
				c16.08-25.89,22.81-56.5,19.39-86.77c-6.5-58.4-61.35-113.13-119.86-119.39c-4.96-0.59-9.93-0.83-15.01-0.83h-93.27V41.78h-16.9
				v-16.9L247.6,24.88L247.6,24.88z M247.6,58.8h16.9v16.9h-16.9V58.8z M463.21,290.61c-38.3,42.91-101.9,52.13-150.84,21.87
				c-13.71-8.87-29.32-14.3-45.51-15.84c-3.55-0.24-7.21-0.35-10.88-0.35c-3.9,0-7.68,0.12-11.47,0.47
				c-15.96,1.54-31.33,6.86-44.8,15.6c-55.8,34.52-128.97,17.26-163.48-38.54c-14.07-22.7-19.98-49.41-17.02-76.01
				c5.56-50.24,54.49-98.94,104.85-104.38c4.37-0.47,8.75-0.71,13.12-0.71h237.48c4.37,0,8.75,0.24,13.12,0.71
				c50.24,5.44,99.18,54.14,104.85,104.38C496.67,231.63,486.03,265.43,463.21,290.61z"/>
		</g>
	</g>
	<g>
		<g>
			<path d="M374.79,126.66c-18.68,0-33.93,15.13-33.93,33.93s15.13,33.93,33.93,33.93c18.68,0,33.93-15.13,33.93-33.93
				S393.47,126.66,374.79,126.66z M374.79,177.6c-9.34,0-16.9-7.57-16.9-16.9c0-9.34,7.57-16.9,16.9-16.9s16.9,7.57,16.9,16.9
				C391.7,169.92,384.13,177.6,374.79,177.6z"/>
		</g>
	</g>
	<g>
		<g>
			<path d="M374.79,228.43c-18.68,0-33.93,15.13-33.93,33.93c0,18.68,15.13,33.93,33.93,33.93c18.68,0,33.93-15.13,33.93-33.93
				C408.72,243.57,393.47,228.43,374.79,228.43z M374.79,279.26c-9.34,0-16.9-7.57-16.9-16.9c0-9.34,7.57-16.9,16.9-16.9
				s16.9,7.57,16.9,16.9C391.7,271.7,384.13,279.26,374.79,279.26z"/>
		</g>
	</g>
	<g>
		<g>
			<path d="M315.45,177.6c-18.68,0-33.93,15.13-33.93,33.93c0,18.68,15.13,33.93,33.93,33.93c18.68,0,33.93-15.13,33.93-33.93
				C349.26,192.74,334.13,177.6,315.45,177.6z M315.45,228.43c-9.34,0-16.9-7.57-16.9-16.9s7.57-16.9,16.9-16.9s16.9,7.57,16.9,16.9
				C332.36,220.87,324.79,228.43,315.45,228.43z"/>
		</g>
	</g>
	<g>
		<g>
			<path d="M434.13,177.6c-18.68,0-33.93,15.13-33.93,33.93c0,18.68,15.13,33.93,33.93,33.93c18.68,0,33.93-15.13,33.93-33.93
				C468.06,192.74,452.81,177.6,434.13,177.6z M434.13,228.43c-9.34,0-16.9-7.57-16.9-16.9s7.57-16.9,16.9-16.9s16.9,7.57,16.9,16.9
				C451.04,220.87,443.47,228.43,434.13,228.43z"/>
		</g>
	</g>
</g>
</svg>
