<svg xmlns="http://www.w3.org/2000/svg" viewBox="0 -75 520 340">
  <title>scooter-icon</title>
  <path d="M531.59,172.07C529.9,185,523,194,511.24,199.45a23.33,23.33,0,0,1-10.72,2.43c-5.06-.17-10.15-.27-15.2,0-19.83,1.06-34.69-15.95-34.21-34.44.09-3.55-.05-7.1,0-10.64.05-2.58-1.08-3.75-3.65-3.63-1.18.05-2.36,0-3.55,0q-69.94,0-139.9,0c-3.48,0-6.45.47-9.32,2.85-4.82,4-10.64,5.57-16.95,5.33-3.71-.14-7.44-.17-11.15,0a26,26,0,0,1-18.29-6,9.41,9.41,0,0,0-6.46-2.2q-72,0-144-.06c-4.15,0-5.25,1.49-5.11,5.35.32,8.93.6,17.9-4,26.12-6.22,11-15.55,16.91-28.22,17.26-5.41.15-10.84-.27-16.22.09-14,.91-30.34-13.74-31.48-27.53-.35-4.36-.8-8.7-.8-13.08q0-62.85,0-125.71C12,25,16.2,16.69,25.39,11.15A18.69,18.69,0,0,1,35.48,8.42c11.15.09,22.32.39,33.45-.07,12.76-.52,32.36,9.92,37,26.45,1.44,5.1,4.09,6.26,9,6.21,28.05-.23,56.1-.13,84.15-.1,15.33,0,28.73,11.7,30.53,26.82.49,4.09,2.05,5.77,6.41,5.74,5.68,0,10.95-.21,15.43-4.46,2.35-2.23,5.68-3,8.9-3.15,12.69-.73,25.44-2.87,36.75,6.22,4,3.18,9.81,1.42,14.75.79,1.75-.23,2-2.87,2.25-4.72,2.29-16,15.13-27.24,31.2-27.25,28.21,0,56.43-.09,84.65.09,4.22,0,6.5-1.11,7.62-5.32C442.09,19,461.8,7.46,476.13,8.34A181.19,181.19,0,0,0,504,8.29a25.53,25.53,0,0,1,27.6,21.81ZM377.3,138.25h60.32c13.95,0,13.95,0,13.5-14,0-.34,0-.68,0-1,0-2.23-.49-3.69-3.27-2.77a11.67,11.67,0,0,1-3.51.26c-5.2,0-8.93-3-9.22-7.48-.22-3.35,3.59-6.76,8.17-7.42,9.84-1.42,18.78-4.6,26.34-11.56,10.64-9.79,21.64-19.2,32.63-28.6A68.12,68.12,0,0,0,511,57.32c6.07-7.39,5.08-16.11,5-24.67-.06-6.54-2.71-9.23-9.2-9.27q-15.72-.09-31.43,0c-13.73,0-22.54,8.17-24.71,21.79-1.36,8.6-.65,17.17-.82,25.75-.2,10.87-6.6,17.34-17.66,17.35q-59.29,0-118.6,0c-11.11,0-9.72-1.37-9.8,9.61-.06,7.91,0,7.91,8,7.91,32.27,0,64.54,0,96.81,0,4.36,0,7.19,1.93,8.54,5.7,1.26,3.51-.85,6.08-3.56,8.19-2,1.52-4.2,1-6.35,1q-45.87,0-91.74,0c-11.78,0-11.59,0-11.76,11.82-.07,4.38,1.16,5.86,5.7,5.82C332,138.14,354.66,138.25,377.3,138.25Zm-210.88,0h66.41a18.12,18.12,0,0,0,4-.07c6.49-1.48,2.62-6.63,3.1-10,.34-2.46,2.36-6.91-3.1-7.41-1.51-.14-3,0-4.56-.06-4.65-.15-8.12-3.11-8.3-7.07-.2-4.14,3.26-7.43,8.2-7.8,8-.61,8-.61,8-8.43a32.31,32.31,0,0,1,0-4.06c.53-4.11-1.37-5.19-5.26-5.15-15.72.17-31.43.07-47.15.07q-38.26,0-76.54,0c-10.39,0-17.09-6.64-17.1-16.85,0-6.59.33-13.2-.08-19.77-1-16.48-7-28.59-28.57-28.29-6.92.1-13.85,0-20.78,0-16.81,0-16.51,0-16.91,16.93C27.6,50,31.52,57.35,38.57,63.18Q54.52,76.4,69.66,90.48c11,10.23,23.35,15.8,38.69,15.45,22-.51,43.94-.13,65.9-.13,7.94,0,15.89-.09,23.83.07,4.64.09,8.18,3.43,8.24,7.29s-3.45,7.18-8,7.51c-1.52.1-3,0-4.56,0-29.74,0-59.48-.06-89.22.08-3.76,0-8.87-2.23-10.9.45-1.91,2.52-.42,7.47-.79,11.32-.44,4.44,1.2,5.82,5.69,5.78C121.13,138.14,143.78,138.25,166.42,138.25ZM28,73.85c0,33.59-.08,66.33.07,99.07,0,7.24,7.49,13.72,15.38,14,4.72.15,9.46-.17,14.18.08,13.78.71,19.85-7.07,20.22-19.59.48-16.19.12-32.41.12-48.62,0-2.47-.57-4.7-2.84-6.1C62.68,105,52.87,94.24,41.81,85,37.47,81.35,33.6,77.12,28,73.85Zm487.44.31c-5.08,3.07-9.09,7.38-13.55,11.11-10.93,9.15-20.63,19.79-32.9,27.34a6,6,0,0,0-2.87,5.56c.46,18.19-1.23,36.42,1,54.58,1,8.24,7.29,13.94,15.72,14.15,5.4.13,10.8.06,16.21,0,10.63-.07,17-6.44,17-17q0-45.59,0-91.16C516,77.35,516.45,75.8,515.4,74.16ZM255.12,113.24c0,7.94-.12,15.88,0,23.81.13,6.53,3,9.24,9.35,9.3,5.07.05,10.13.06,15.2,0,5.89-.07,9-2.64,9.06-8.51q.33-24.57,0-49.14c-.08-5.88-3.17-8.46-9-8.54-4.72,0-9.45,0-14.18,0-7.73,0-10.35,2.56-10.42,10.3S255.11,105.65,255.12,113.24Zm126-39.89h41c13.84,0,13.77,0,12.83-13.75-.2-2.85-1.3-3.81-4-3.81-28.88.05-57.76,0-86.64.09A16.85,16.85,0,0,0,329,67.05c-1.76,5.22-1,6.28,4.51,6.29Q357.28,73.39,381.08,73.35Zm-218.5,0c16.21,0,32.42,0,48.63,0,4.7,0,5.6-1.5,3.87-6-2.93-7.51-8.81-11.55-17.15-11.56q-38.49,0-77,0c-12,0-11.86,0-12,12.11,0,4.18,1.25,5.57,5.47,5.51C130.5,73.23,146.54,73.35,162.58,73.35Z" transform="translate(-12.01 -8.17)"/>
</svg>
