<?xml version="1.0" encoding="utf-8"?>
<!-- Generator: Adobe Illustrator 23.0.0, SVG Export Plug-In . SVG Version: 6.00 Build 0)  -->
<svg version="1.1" id="Camada_1" xmlns="http://www.w3.org/2000/svg" xmlns:xlink="http://www.w3.org/1999/xlink" x="0px" y="0px"
	 viewBox="0 0 165 323" style="enable-background:new 0 0 165 323;" xml:space="preserve">
<title>vaper</title>
<g>
	<g>
		<path d="M-0.2,194c0-12.3,0-24.7,0-37c1.9-6.5,5.6-11.3,12.8-12.4c2-0.3,2.8-1.6,2.8-3.5c0-2,0.2-4,0-6c-0.6-4.9,1.6-6.4,6.3-6.3
			c16,0.2,32,0.1,48,0.1c6.6,0,6.8-0.2,6.8-6.7c0-24.2,0-48.3,0-72.5c0-7.6,0.2-7.8,7.9-7.9c7.1-0.1,7.8-0.8,8-8.1
			c0.2-7.5-0.6-14.9-0.1-22.4c0.2-3.4,1.4-4.7,4.8-4.6c14.1,0.1,28.2,0.1,42.3,0c3.8,0,4.9,1.7,4.8,5.1c-0.1,6.5-0.1,13,0,19.5
			c0.1,10.5-1.5,10.9,9.9,10.6c3.4-0.1,4.9,1.1,5.2,4.9c0.6,8.8,0.3,17.6,0.2,26.4c-0.2,16.8,0.4,33.5-0.2,50.3
			c-0.1,1.8-0.5,4.3,1.5,4.9c4.7,1.4,4.2,4.9,4.2,8.4c0,23.5,0,47,0,70.5c0,39-0.1,78-0.2,116.9c-49.7,0-99.3,0-149,0
			c-0.1-2.2-0.4-4.3-0.4-6.5c0-18-0.1-35.9,0-53.9c0-3-0.4-5.2-3.8-6C5,256.1,1.2,251.6-0.2,245c0-7.3,0-14.7,0-22
			c1.9-6.4,5.7-10.7,12.4-12.2c1.1-0.2,2.5-0.3,2.7-1.7c0.2-1.8-1.5-2.2-2.7-2.4C5.1,205.3,1.4,200.7-0.2,194z M153.4,227.4
			c0-26.7,0-53.3,0-80c0-7,0-7-6.9-7c-37.3,0-74.6,0-111.9,0c-7.7,0-7.8,0-7.8,7.8c0,53,0,105.9,0,158.9c0,6.1,0.4,6.5,6.6,6.5
			c38,0,76-0.1,113.9,0.1c4.9,0,6.3-1.7,6.2-6.4C153.3,280.7,153.4,254,153.4,227.4z M108.2,90.9c0,3,0,6,0,9
			c0.3,15.9-2.6,13.5,14.2,13.8c3.9,0.1,5.3-1.6,5.2-5.3c-0.1-8.7,0.1-17.3-0.1-26c-0.2-16.4,2.7-13.7-15-14c-3.2,0-4.5,1.4-4.4,4.6
			C108.2,78.9,108.2,84.9,108.2,90.9z M117.9,17.4c-3.5,0-7,0-10.5,0c-2.9-0.1-4.3,1.1-4.3,4.1c0,5.3,0.1,10.6,0,15.9
			c-0.1,3.3,1.6,4.4,4.6,4.4c6.6-0.1,13.3-0.1,19.9,0c3.3,0,5-1.2,4.9-4.7c-0.1-5-0.1-10,0-14.9c0.1-3.3-1.3-4.9-4.7-4.8
			C124.6,17.5,121.2,17.4,117.9,17.4z M148.4,98.8c0-8.3,0-16.6,0-25c0-3.2-0.4-5.5-4.5-5.6c-4.3-0.1-4.9,2.2-4.9,5.7
			c0.1,10.5,0,21,0.1,31.5c0,3.5-1.2,7.5,3.9,8.9c1.1,0.3,1,2,1,3.1c0.1,2.2,0,4.3,0.1,6.5c0.1,1.7-0.4,4.3,2.2,4.2
			c2.5-0.1,2-2.7,2-4.4C148.4,115.5,148.4,107.2,148.4,98.8z M97.4,91.3c0-6.1-0.1-12.3,0-18.4c0-3.5-1.8-4.5-5-4.5
			C89.1,68.4,88,70,88,73c0.1,7.1,0,14.3,0,21.4c0,10,0,19.9,0,29.9c0,1.6-0.2,3.9,2,3.9c2.6,0,2.2-2.4,2.2-4.2
			c0-1.3-0.4-2.6-0.5-3.9c0-2.1-0.3-5.2,1.7-5.8c4.4-1.3,3.8-4.4,3.8-7.5C97.4,101.6,97.4,96.5,97.4,91.3z M117.8,57.6
			C117.8,57.6,117.8,57.6,117.8,57.6c8.7,0,17.3,0.1,26,0c1.7,0,4.2,0.4,4.1-2.3c-0.1-2.2-2.3-1.9-4-1.9c-17.2,0-34.3,0-51.5,0
			c-1.6,0-3.9-0.2-3.9,2c0,2.6,2.5,2.2,4.2,2.2C101.1,57.6,109.5,57.6,117.8,57.6z M15.4,175.6c0-5.3,0-10.6,0-16
			c0-1.3,0.3-3-1.5-3.2c-1.9-0.2-2.6,1.4-2.6,3c0,10.8,0,21.6,0,32.4c0,1.5,0.7,3.2,2.6,2.9c1.8-0.2,1.4-2,1.4-3.3
			C15.4,186.2,15.4,180.9,15.4,175.6z M15.4,234.3C15.3,234.3,15.3,234.3,15.4,234.3c-0.1-3.1,0-6.3-0.1-9.4c0-1-0.5-2-1.7-2.1
			c-1.2-0.1-2,0.7-2.1,1.7c-0.5,6.4-0.6,12.8,0,19.3c0.1,1.1,0.9,2.3,2.3,2.1c1.5-0.2,1.5-1.5,1.6-2.7
			C15.4,240.3,15.4,237.3,15.4,234.3z M117.7,125.3c-3.8,0-7.7,0-11.5,0c-1.2,0-2.5,0.3-2.4,1.9c0.1,1.2,1.3,1.5,2.3,1.5
			c7.6,0,15.3,0,22.9,0c1.1,0,2.6-0.1,2.6-1.7c0-1.6-1.4-1.7-2.5-1.7C125.4,125.3,121.5,125.3,117.7,125.3z"/>
		<path d="M144.1,265.5c0,11.2-0.1,22.3,0.1,33.5c0.1,3.9-1.4,5.4-5.3,5.3c-5.5-0.2-11-0.2-16.5,0c-4.5,0.2-5.2-2.2-5.1-6
			c0-3.5,0.6-5.6,4.8-5.7c10.5-0.3,10.5-0.5,10.5-11c0-16.2,0-32.3,0-48.5c0-6,4-8.5,9.5-6.3c2.3,0.9,1.9,2.9,1.9,4.6
			C144.2,242.8,144.1,254.2,144.1,265.5z"/>
		<path d="M144.1,196.4c0,3.8-0.1,7.7,0,11.5c0.1,3.7-2.1,4.5-5.1,4.4c-2.8-0.1-6.1,0.5-6.2-3.8c-0.1-8-0.1-16,0-24
			c0.1-4.7,3.8-3.6,6.6-3.8c3-0.2,4.8,0.8,4.7,4.2C144,188.7,144.1,192.5,144.1,196.4z"/>
		<path d="M89.5,304.3c-2.3,0-4.7-0.2-7,0c-4.9,0.5-6.4-1.8-6.2-6.4c0.2-3.5,1.2-5.3,4.9-5.2c5.6,0.1,11.3,0.2,16.9,0
			c4.6-0.1,4.9,2.7,4.9,6.2c0.1,3.7-1.2,5.6-5.2,5.4C95.1,304.2,92.3,304.3,89.5,304.3z"/>
	</g>
</g>
</svg>
